<?xml version="1.0" standalone="no"?>
<!DOCTYPE svg PUBLIC "-//W3C//DTD SVG 20010904//EN"
 "http://www.w3.org/TR/2001/REC-SVG-20010904/DTD/svg10.dtd">
<svg version="1.0" xmlns="http://www.w3.org/2000/svg"
 width="700.000000pt" height="700.000000pt" viewBox="0 0 700.000000 700.000000"
 preserveAspectRatio="xMidYMid meet">
<metadata>
Created by potrace 1.14, written by Peter Selinger 2001-2017
</metadata>
<g transform="translate(0.000000,700.000000) scale(0.100000,-0.100000)"
fill="#000000" stroke="none">
<path d="M1595 6994 c-213 -27 -331 -54 -489 -116 -574 -223 -992 -743 -1091
-1358 -13 -83 -15 -343 -15 -2020 0 -1677 2 -1937 15 -2020 61 -379 234 -711
511 -982 252 -248 573 -411 934 -476 88 -16 247 -17 2030 -17 1839 0 1940 1
2040 19 381 67 707 239 970 513 133 138 222 263 305 428 72 144 122 286 157
445 l23 105 0 1985 0 1985 -23 105 c-35 159 -85 301 -157 445 -83 165 -172
290 -305 428 -261 272 -563 433 -960 514 -79 16 -230 17 -2000 19 -1053 0
-1928 0 -1945 -2z m155 -3494 l0 -2190 -215 0 -215 0 0 2190 0 2190 215 0 215
0 0 -2190z m2415 2180 c301 -29 564 -120 805 -279 113 -74 309 -270 383 -381
150 -228 225 -453 247 -734 40 -523 -187 -1012 -614 -1329 -45 -32 -82 -62
-84 -67 -1 -4 179 -331 401 -726 222 -395 420 -749 441 -786 l38 -68 -659 0
-660 0 -324 665 -324 665 -212 0 -213 0 0 -665 0 -665 -600 0 -600 0 0 2190 0
2190 933 0 c566 0 975 -4 1042 -10z"/>
<path d="M3390 4171 l0 -511 286 0 c229 0 298 3 348 16 229 59 361 245 359
504 -1 247 -124 413 -350 476 -45 12 -126 17 -350 21 l-293 6 0 -512z"/>
</g>
</svg>
